<svg width="64" height="64" viewBox="0 0 64 64" xmlns="http://www.w3.org/2000/svg">
  <defs>
    <linearGradient id="favGrad1" x1="0%" y1="0%" x2="100%" y2="100%">
      <stop offset="0%" style="stop-color:#ec4899"/>
      <stop offset="100%" style="stop-color:#8b5cf6"/>
    </linearGradient>
    <linearGradient id="favGrad2" x1="100%" y1="0%" x2="0%" y2="100%">
      <stop offset="0%" style="stop-color:#8b5cf6"/>
      <stop offset="100%" style="stop-color:#ec4899"/>
    </linearGradient>
  </defs>
  
  <!-- Dark background circle -->
  <circle cx="32" cy="32" r="32" fill="#1a1a1a"/>
  
  <!-- Left C mark (scaled and centered with better positioning) -->
  <g transform="translate(9, 17.3) scale(0.75)">
    <path d="M20 0 C9 0 0 9 0 20 C0 31 9 40 20 40 L27 40 L27 29 L20 29 C15 29 11 25 11 20 C11 15 15 11 20 11 L27 11 L27 0 Z" fill="url(#favGrad1)"/>
  </g>
  
  <!-- Right D mark (scaled and centered with better positioning and more spacing) -->
  <g transform="translate(35, 17.3) scale(0.75)">
    <path d="M7 0 C18 0 27 9 27 20 C27 31 18 40 7 40 L0 40 L0 29 L7 29 C12 29 16 25 16 20 C16 15 12 11 7 11 L0 11 L0 0 Z" fill="url(#favGrad2)"/>
  </g>
</svg>
